<mxfile host="app.diagrams.net" modified="2023-05-31T03:55:24.132Z" agent="Mozilla/5.0 (Windows NT 10.0; Win64; x64) AppleWebKit/537.36 (KHTML, like Gecko) Chrome/113.0.0.0 Safari/537.36" etag="Gx3Lid9lo4I3VVu5q8XM" version="21.3.6" type="github">
  <diagram id="C5RBs43oDa-KdzZeNtuy" name="Page-1">
    <mxGraphModel dx="1050" dy="541" grid="1" gridSize="10" guides="1" tooltips="1" connect="1" arrows="1" fold="1" page="1" pageScale="1" pageWidth="827" pageHeight="1169" math="0" shadow="0">
      <root>
        <mxCell id="WIyWlLk6GJQsqaUBKTNV-0" />
        <mxCell id="WIyWlLk6GJQsqaUBKTNV-1" parent="WIyWlLk6GJQsqaUBKTNV-0" />
        <mxCell id="iAqt3-FBgXSzbzAGJiQt-1" value="" style="edgeStyle=orthogonalEdgeStyle;rounded=0;orthogonalLoop=1;jettySize=auto;html=1;" edge="1" parent="WIyWlLk6GJQsqaUBKTNV-1" source="WIyWlLk6GJQsqaUBKTNV-3" target="iAqt3-FBgXSzbzAGJiQt-0">
          <mxGeometry relative="1" as="geometry" />
        </mxCell>
        <mxCell id="WIyWlLk6GJQsqaUBKTNV-3" value="开始" style="rounded=1;whiteSpace=wrap;html=1;fontSize=12;glass=0;strokeWidth=1;shadow=0;" parent="WIyWlLk6GJQsqaUBKTNV-1" vertex="1">
          <mxGeometry x="160" y="80" width="120" height="40" as="geometry" />
        </mxCell>
        <mxCell id="iAqt3-FBgXSzbzAGJiQt-3" value="" style="edgeStyle=orthogonalEdgeStyle;rounded=0;orthogonalLoop=1;jettySize=auto;html=1;" edge="1" parent="WIyWlLk6GJQsqaUBKTNV-1" source="iAqt3-FBgXSzbzAGJiQt-0" target="iAqt3-FBgXSzbzAGJiQt-2">
          <mxGeometry relative="1" as="geometry" />
        </mxCell>
        <mxCell id="iAqt3-FBgXSzbzAGJiQt-0" value="spdk_public_init" style="rounded=1;whiteSpace=wrap;html=1;glass=0;strokeWidth=1;shadow=0;" vertex="1" parent="WIyWlLk6GJQsqaUBKTNV-1">
          <mxGeometry x="160" y="160" width="120" height="60" as="geometry" />
        </mxCell>
        <mxCell id="iAqt3-FBgXSzbzAGJiQt-5" value="" style="edgeStyle=orthogonalEdgeStyle;rounded=0;orthogonalLoop=1;jettySize=auto;html=1;" edge="1" parent="WIyWlLk6GJQsqaUBKTNV-1" source="iAqt3-FBgXSzbzAGJiQt-2" target="iAqt3-FBgXSzbzAGJiQt-4">
          <mxGeometry relative="1" as="geometry" />
        </mxCell>
        <mxCell id="iAqt3-FBgXSzbzAGJiQt-9" value="" style="edgeStyle=orthogonalEdgeStyle;rounded=0;orthogonalLoop=1;jettySize=auto;html=1;" edge="1" parent="WIyWlLk6GJQsqaUBKTNV-1" source="iAqt3-FBgXSzbzAGJiQt-2" target="iAqt3-FBgXSzbzAGJiQt-8">
          <mxGeometry relative="1" as="geometry" />
        </mxCell>
        <mxCell id="iAqt3-FBgXSzbzAGJiQt-2" value="spdk_public_init_env" style="rounded=1;whiteSpace=wrap;html=1;glass=0;strokeWidth=1;shadow=0;" vertex="1" parent="WIyWlLk6GJQsqaUBKTNV-1">
          <mxGeometry x="160" y="250" width="120" height="60" as="geometry" />
        </mxCell>
        <mxCell id="iAqt3-FBgXSzbzAGJiQt-11" value="" style="edgeStyle=orthogonalEdgeStyle;rounded=0;orthogonalLoop=1;jettySize=auto;html=1;" edge="1" parent="WIyWlLk6GJQsqaUBKTNV-1" source="iAqt3-FBgXSzbzAGJiQt-4" target="iAqt3-FBgXSzbzAGJiQt-10">
          <mxGeometry relative="1" as="geometry" />
        </mxCell>
        <mxCell id="iAqt3-FBgXSzbzAGJiQt-4" value="spdk_init_thread_poll" style="whiteSpace=wrap;html=1;rounded=1;glass=0;strokeWidth=1;shadow=0;" vertex="1" parent="WIyWlLk6GJQsqaUBKTNV-1">
          <mxGeometry x="400" y="250" width="120" height="60" as="geometry" />
        </mxCell>
        <mxCell id="iAqt3-FBgXSzbzAGJiQt-6" value="Spawn a thread" style="text;strokeColor=none;align=center;fillColor=none;html=1;verticalAlign=middle;whiteSpace=wrap;rounded=0;" vertex="1" parent="WIyWlLk6GJQsqaUBKTNV-1">
          <mxGeometry x="320" y="240" width="60" height="30" as="geometry" />
        </mxCell>
        <mxCell id="iAqt3-FBgXSzbzAGJiQt-7" value="该线程来处理初始化工作" style="text;strokeColor=none;align=center;fillColor=none;html=1;verticalAlign=middle;whiteSpace=wrap;rounded=0;" vertex="1" parent="WIyWlLk6GJQsqaUBKTNV-1">
          <mxGeometry x="440" y="210" width="60" height="30" as="geometry" />
        </mxCell>
        <mxCell id="iAqt3-FBgXSzbzAGJiQt-8" value="wait on&lt;br&gt;g_init_cond" style="rhombus;whiteSpace=wrap;html=1;rounded=1;glass=0;strokeWidth=1;shadow=0;" vertex="1" parent="WIyWlLk6GJQsqaUBKTNV-1">
          <mxGeometry x="165" y="340" width="110" height="80" as="geometry" />
        </mxCell>
        <mxCell id="iAqt3-FBgXSzbzAGJiQt-13" value="" style="edgeStyle=orthogonalEdgeStyle;rounded=0;orthogonalLoop=1;jettySize=auto;html=1;" edge="1" parent="WIyWlLk6GJQsqaUBKTNV-1" source="iAqt3-FBgXSzbzAGJiQt-10" target="iAqt3-FBgXSzbzAGJiQt-12">
          <mxGeometry relative="1" as="geometry" />
        </mxCell>
        <mxCell id="iAqt3-FBgXSzbzAGJiQt-10" value="spdk env init&lt;br&gt;spdk thread lib&lt;br&gt;init" style="rounded=1;whiteSpace=wrap;html=1;glass=0;strokeWidth=1;shadow=0;" vertex="1" parent="WIyWlLk6GJQsqaUBKTNV-1">
          <mxGeometry x="400" y="330" width="120" height="60" as="geometry" />
        </mxCell>
        <mxCell id="iAqt3-FBgXSzbzAGJiQt-12" value="spdk_public_init_thread" style="whiteSpace=wrap;html=1;rounded=1;glass=0;strokeWidth=1;shadow=0;" vertex="1" parent="WIyWlLk6GJQsqaUBKTNV-1">
          <mxGeometry x="395" y="410" width="130" height="60" as="geometry" />
        </mxCell>
        <mxCell id="iAqt3-FBgXSzbzAGJiQt-14" value="初始化SPDK线程" style="text;strokeColor=none;align=center;fillColor=none;html=1;verticalAlign=middle;whiteSpace=wrap;rounded=0;" vertex="1" parent="WIyWlLk6GJQsqaUBKTNV-1">
          <mxGeometry x="540" y="425" width="60" height="30" as="geometry" />
        </mxCell>
      </root>
    </mxGraphModel>
  </diagram>
</mxfile>
